#N canvas 30 63 1019 649 10;
#X obj 517 68 soundfiler;
#X obj 517 146 random 100;
#X obj 517 91 t b f;
#X floatatom 517 172 10 0 0 0 Start - -;
#X obj 610 145 random 100;
#X floatatom 610 171 10 0 0 0 End - -;
#X obj 711 145 random 100;
#X floatatom 711 172 10 0 0 0 Speed - -;
#X obj 610 279 list;
#X obj 610 122 delay 10;
#X floatatom 448 91 10 0 0 0 Total - -;
#X msg 448 65 \$1;
#X obj 425 66 bng 15 250 50 0 empty empty empty 17 7 0 10 -262144 -1
-1;
#X obj 359 313 phasor~ 20;
#X obj 430 403 +~;
#X obj 359 352 +~ 0.5;
#X obj 359 378 cos~;
#X obj 359 402 *~ 0.5;
#X obj 359 430 +~ 0.5;
#X obj 359 453 *~;
#X obj 242 282 +~ 0.5;
#X obj 242 311 wrap~;
#X obj 192 344 +~ 0.5;
#X obj 192 370 cos~;
#X obj 192 394 *~ 0.5;
#X obj 192 417 +~ 0.5;
#X obj 192 452 *~;
#X obj 242 387 +~;
#X obj 517 197 line~;
#X obj 471 403 samphold~;
#X obj 275 387 samphold~;
#X floatatom 359 277 5 0 0 0 freq - -;
#X obj 430 313 samphold~;
#X obj 284 311 samphold~;
#X obj 242 361 *~;
#X obj 430 382 *~;
#X floatatom 430 244 5 0 0 0 pitch - -;
#X obj 430 265 t b f;
#X obj 430 288 expr 44100/$f1*$f2;
#X obj 470 197 noise~;
#X obj 470 220 *~;
#X obj 470 243 +~;
#X floatatom 498 244 5 0 0 1 noise - -;
#X obj 359 196 loadbang;
#X msg 359 245 20;
#X msg 430 220 1;
#X msg 498 219 200;
#X obj 242 417 tabread~ \$0-sample;
#X obj 211 -32 inlet;
#X obj 253 -32 inlet;
#X obj 295 -32 inlet;
#X obj 335 -32 inlet;
#X obj 359 499 outlet~;
#N canvas 0 22 450 278 (subpatch) 0;
#X array \$0-sample 6.06092e+06 float 2;
#X coords 0 278 1 277 200 140 0;
#X restore 192 37 graph;
#X obj 424 1 bng 15 250 50 0 empty empty empty 17 7 0 10 -262144 -1
-1;
#X obj 493 -4 f \$0;
#X obj 439 23 pack s f;
#X msg 517 35 read -resize \$1 \$2-sample;
#X obj 430 428 tabread~ \$0-sample;
#X obj 377 -32 inlet;
#X obj 697 220 spigot 1;
#X obj 632 218 spigot;
#X floatatom 632 247 20 0 0 0 - - -;
#X obj 742 196 == 0;
#X connect 0 0 2 0;
#X connect 0 0 11 0;
#X connect 1 0 3 0;
#X connect 2 0 1 0;
#X connect 2 0 9 0;
#X connect 2 1 1 1;
#X connect 2 1 4 1;
#X connect 2 1 6 1;
#X connect 3 0 28 0;
#X connect 4 0 5 0;
#X connect 5 0 8 0;
#X connect 6 0 7 0;
#X connect 7 0 60 0;
#X connect 8 0 28 0;
#X connect 9 0 4 0;
#X connect 9 0 6 0;
#X connect 10 0 2 0;
#X connect 10 0 61 0;
#X connect 11 0 10 0;
#X connect 12 0 10 0;
#X connect 13 0 15 0;
#X connect 13 0 20 0;
#X connect 13 0 29 1;
#X connect 13 0 35 0;
#X connect 13 0 32 1;
#X connect 14 0 58 0;
#X connect 15 0 16 0;
#X connect 16 0 17 0;
#X connect 17 0 18 0;
#X connect 18 0 19 0;
#X connect 19 0 52 0;
#X connect 20 0 21 0;
#X connect 21 0 22 0;
#X connect 21 0 30 1;
#X connect 21 0 34 0;
#X connect 21 0 33 1;
#X connect 22 0 23 0;
#X connect 23 0 24 0;
#X connect 24 0 25 0;
#X connect 25 0 26 0;
#X connect 26 0 52 0;
#X connect 27 0 47 0;
#X connect 28 0 41 1;
#X connect 29 0 14 1;
#X connect 30 0 27 1;
#X connect 31 0 13 0;
#X connect 31 0 38 0;
#X connect 32 0 35 0;
#X connect 33 0 34 1;
#X connect 34 0 27 0;
#X connect 35 0 14 0;
#X connect 36 0 37 0;
#X connect 37 0 38 0;
#X connect 37 1 38 1;
#X connect 38 0 32 0;
#X connect 38 0 33 0;
#X connect 39 0 40 0;
#X connect 40 0 41 0;
#X connect 41 0 29 0;
#X connect 41 0 30 0;
#X connect 42 0 40 1;
#X connect 43 0 44 0;
#X connect 43 0 45 0;
#X connect 43 0 46 0;
#X connect 44 0 31 0;
#X connect 45 0 36 0;
#X connect 46 0 42 0;
#X connect 47 0 26 1;
#X connect 48 0 54 0;
#X connect 48 0 56 0;
#X connect 49 0 12 0;
#X connect 50 0 36 0;
#X connect 51 0 31 0;
#X connect 54 0 55 0;
#X connect 55 0 56 1;
#X connect 56 0 57 0;
#X connect 57 0 0 0;
#X connect 58 0 19 1;
#X connect 59 0 61 1;
#X connect 59 0 63 0;
#X connect 60 0 62 0;
#X connect 61 0 62 0;
#X connect 62 0 8 1;
#X connect 63 0 60 1;
#X coords 0 -1 1 1 85 10 1 100 10;
