#N canvas -144 33 1920 770 10;
#X obj -163 318 osc~ 440;
#X obj -162 443 dac~;
#X obj -36 278 bng 15 250 50 0 empty empty empty 17 7 0 10 -262144
-1 -1;
#X obj -102 302 delay 100;
#X msg -102 334 0 10;
#X msg -36 334 0.5 10;
#X obj -102 368 line~;
#X obj -162 396 *~;
#X obj -36 251 metro 1000;
#X obj -36 222 tgl 15 0 empty empty empty 17 7 0 10 -262144 -1 -1 0
1;
#X obj 59 209 /;
#X msg 59 182 60000;
#X floatatom 109 182 5 0 0 0 - - -;
#X floatatom 59 236 5 0 0 0 - - -;
#X obj 60 147 t b f;
#X floatatom 59 112 5 0 0 0 bpm - -;
#X obj -186 10 bng 15 250 50 0 empty empty empty 17 7 0 10 -262144
-1 -1;
#X obj -186 42 f 0;
#X obj -186 70 + 1;
#X floatatom -186 97 5 0 0 0 - - -;
#X obj -186 130 sel 4;
#X floatatom -129 168 5 0 0 0 - - -;
#X msg -144 267 440;
#X msg -201 269 880;
#X obj -196 228 bng 15 250 50 0 empty empty empty 17 7 0 10 -262144
-1 -1;
#X obj -239 135 sel 1;
#X obj -143 232 t b;
#X obj 474 -2 loadbang;
#N canvas 0 22 450 278 (subpatch) 0;
#X array a01 1.83456e+07 float 2;
#X coords 0 1 1.83456e+07 -1 200 70 1 0 0;
#X restore 717 -6 graph;
#X msg 474 20 read -resize Beethoven_pathet1.wav a01;
#X obj 474 43 soundfiler;
#X obj 523 349 phasor~ 20;
#X obj 593 464 tabread~ a01;
#X obj 486 635 dac~;
#X obj 593 439 +~;
#X obj 523 388 +~ 0.5;
#X obj 523 414 cos~;
#X obj 523 438 *~ 0.5;
#X obj 523 466 +~ 0.5;
#X obj 524 506 *~;
#X obj 418 318 +~ 0.5;
#X obj 418 348 wrap~;
#X obj 418 453 tabread~ a01;
#X obj 368 380 +~ 0.5;
#X obj 368 406 cos~;
#X obj 368 430 *~ 0.5;
#X obj 368 453 +~ 0.5;
#X obj 393 512 *~;
#X obj 418 423 +~;
#X obj 732 226 line~;
#X obj 622 439 samphold~;
#X obj 451 423 samphold~;
#X floatatom 523 289 5 0 0 0 - - -;
#X obj 593 349 samphold~;
#X obj 460 347 samphold~;
#X obj 418 380 *~;
#X obj 593 418 *~;
#X floatatom 612 260 5 0 0 0 - - -;
#X obj 612 286 t b f;
#X obj 557 324 expr 44100/$f1*$f2;
#X msg 777 209 1.882e+06 \, 1.888e+06 10000;
#X msg 778 151 1.782e+06 \, 2.686e+06 50000;
#X msg 612 226 0.33;
#X msg 523 257 199;
#X obj 685 226 noise~;
#X obj 685 256 *~;
#X obj 685 279 +~;
#X floatatom 713 256 5 0 0 0 - - -;
#X msg 776 182 5.6555e+06 \, 4.9803e+06 120000;
#X msg 653 226 0.5;
#X msg 559 258 73.6;
#X floatatom 732 154 5 0 0 0 - - -;
#X obj 852 354 phasor~ 20;
#X obj 922 469 tabread~ a01;
#X obj 815 640 dac~;
#X obj 922 444 +~;
#X obj 852 393 +~ 0.5;
#X obj 852 419 cos~;
#X obj 852 443 *~ 0.5;
#X obj 852 471 +~ 0.5;
#X obj 853 511 *~;
#X obj 747 323 +~ 0.5;
#X obj 747 353 wrap~;
#X obj 747 458 tabread~ a01;
#X obj 697 385 +~ 0.5;
#X obj 697 411 cos~;
#X obj 697 435 *~ 0.5;
#X obj 697 458 +~ 0.5;
#X obj 722 517 *~;
#X obj 747 428 +~;
#X obj 1061 231 line~;
#X obj 951 444 samphold~;
#X obj 780 428 samphold~;
#X floatatom 852 294 5 0 0 0 - - -;
#X obj 922 354 samphold~;
#X obj 789 352 samphold~;
#X obj 747 385 *~;
#X obj 922 423 *~;
#X floatatom 941 265 5 0 0 0 - - -;
#X obj 941 291 t b f;
#X obj 886 329 expr 44100/$f1*$f2;
#X msg 941 231 0.33;
#X msg 852 262 199;
#X obj 1014 231 noise~;
#X obj 1014 261 *~;
#X obj 1014 284 +~;
#X floatatom 1042 261 5 0 0 0 - - -;
#X msg 982 231 0.5;
#X msg 888 263 73.6;
#X floatatom 1061 159 5 0 0 0 - - -;
#X msg 1107 156 0 \, 4.32491e+06 24989;
#X msg 1105 187 998978 \, 0 120000;
#X msg 1106 214 12090 \, 2e+06 600000;
#X obj 1202 342 phasor~ 20;
#X obj 1272 457 tabread~ a01;
#X obj 1165 628 dac~;
#X obj 1272 432 +~;
#X obj 1202 381 +~ 0.5;
#X obj 1202 407 cos~;
#X obj 1202 431 *~ 0.5;
#X obj 1202 459 +~ 0.5;
#X obj 1203 499 *~;
#X obj 1097 311 +~ 0.5;
#X obj 1097 341 wrap~;
#X obj 1097 446 tabread~ a01;
#X obj 1047 373 +~ 0.5;
#X obj 1047 399 cos~;
#X obj 1047 423 *~ 0.5;
#X obj 1047 446 +~ 0.5;
#X obj 1072 505 *~;
#X obj 1097 416 +~;
#X obj 1411 219 line~;
#X obj 1301 432 samphold~;
#X obj 1130 416 samphold~;
#X floatatom 1202 282 5 0 0 0 - - -;
#X obj 1272 342 samphold~;
#X obj 1139 340 samphold~;
#X obj 1097 373 *~;
#X obj 1272 411 *~;
#X floatatom 1291 253 5 0 0 0 - - -;
#X obj 1291 279 t b f;
#X obj 1236 317 expr 44100/$f1*$f2;
#X msg 1457 144 1.782e+06 \, 2.686e+06 50000;
#X msg 1291 219 0.33;
#X msg 1202 250 199;
#X obj 1364 219 noise~;
#X obj 1364 249 *~;
#X obj 1364 272 +~;
#X floatatom 1392 249 5 0 0 0 - - -;
#X msg 1332 219 0.5;
#X msg 1238 251 73.6;
#X floatatom 1411 147 5 0 0 0 - - -;
#X msg 1455 175 44100 \, 8.0808e+06 120000;
#X obj 1556 348 phasor~ 20;
#X obj 1519 634 dac~;
#X obj 1626 438 +~;
#X obj 1556 387 +~ 0.5;
#X obj 1556 413 cos~;
#X obj 1556 437 *~ 0.5;
#X obj 1556 465 +~ 0.5;
#X obj 1557 505 *~;
#X obj 1451 317 +~ 0.5;
#X obj 1451 347 wrap~;
#X obj 1401 379 +~ 0.5;
#X obj 1401 405 cos~;
#X obj 1401 429 *~ 0.5;
#X obj 1401 452 +~ 0.5;
#X obj 1426 511 *~;
#X obj 1451 422 +~;
#X obj 1765 225 line~;
#X obj 1655 438 samphold~;
#X obj 1484 422 samphold~;
#X floatatom 1556 288 5 0 0 0 - - -;
#X obj 1626 348 samphold~;
#X obj 1493 346 samphold~;
#X obj 1451 379 *~;
#X obj 1626 417 *~;
#X floatatom 1645 259 5 0 0 0 - - -;
#X obj 1645 285 t b f;
#X obj 1590 323 expr 44100/$f1*$f2;
#X obj 1718 225 noise~;
#X obj 1718 255 *~;
#X obj 1718 278 +~;
#X floatatom 1746 255 5 0 0 0 - - -;
#X floatatom 1765 153 5 0 0 0 - - -;
#X obj 1451 453 tabread~ b01;
#X obj 1625 463 tabread~ b01;
#X obj 1137 -8 loadbang;
#X obj 1137 37 soundfiler;
#N canvas 0 22 450 278 (subpatch) 0;
#X array b01 1.60512e+06 float 2;
#X coords 0 1 1.60512e+06 -1 200 70 1 0 0;
#X restore 1407 -10 graph;
#X msg 1137 14 read -resize 130617_0000.wav b01;
#X msg 1809 181 0 \, 1.60512e+06 120000;
#X msg 1810 208 1.2e+06 \, 999999 90000;
#X msg 1586 220 1;
#X msg 1811 150 88888 \, 150000 140000;
#X msg 1456 203 100020 \, 100000 30000;
#X connect 0 0 7 0;
#X connect 2 0 3 0;
#X connect 2 0 5 0;
#X connect 3 0 4 0;
#X connect 4 0 6 0;
#X connect 5 0 6 0;
#X connect 6 0 7 1;
#X connect 7 0 1 0;
#X connect 7 0 1 1;
#X connect 8 0 2 0;
#X connect 8 0 16 0;
#X connect 9 0 8 0;
#X connect 10 0 13 0;
#X connect 11 0 10 0;
#X connect 12 0 10 1;
#X connect 13 0 8 1;
#X connect 14 0 11 0;
#X connect 14 1 12 0;
#X connect 15 0 14 0;
#X connect 16 0 17 0;
#X connect 17 0 18 0;
#X connect 18 0 19 0;
#X connect 19 0 20 0;
#X connect 19 0 25 0;
#X connect 20 0 21 0;
#X connect 20 1 17 1;
#X connect 21 0 17 1;
#X connect 22 0 0 0;
#X connect 23 0 0 0;
#X connect 24 0 23 0;
#X connect 25 0 24 0;
#X connect 25 1 26 0;
#X connect 26 0 22 0;
#X connect 27 0 29 0;
#X connect 29 0 30 0;
#X connect 31 0 35 0;
#X connect 31 0 40 0;
#X connect 31 0 50 1;
#X connect 31 0 56 0;
#X connect 31 0 53 1;
#X connect 32 0 39 1;
#X connect 34 0 32 0;
#X connect 35 0 36 0;
#X connect 36 0 37 0;
#X connect 37 0 38 0;
#X connect 38 0 39 0;
#X connect 39 0 33 1;
#X connect 39 0 33 0;
#X connect 40 0 41 0;
#X connect 41 0 43 0;
#X connect 41 0 51 1;
#X connect 41 0 55 0;
#X connect 41 0 54 1;
#X connect 42 0 47 1;
#X connect 43 0 44 0;
#X connect 44 0 45 0;
#X connect 45 0 46 0;
#X connect 46 0 47 0;
#X connect 47 0 33 0;
#X connect 47 0 33 1;
#X connect 48 0 42 0;
#X connect 49 0 66 1;
#X connect 50 0 34 1;
#X connect 51 0 48 1;
#X connect 52 0 31 0;
#X connect 52 0 59 0;
#X connect 53 0 56 0;
#X connect 54 0 55 1;
#X connect 55 0 48 0;
#X connect 56 0 34 0;
#X connect 57 0 58 0;
#X connect 58 0 59 0;
#X connect 58 1 59 1;
#X connect 59 0 53 0;
#X connect 59 0 54 0;
#X connect 60 0 49 0;
#X connect 61 0 49 0;
#X connect 61 0 62 0;
#X connect 61 0 63 0;
#X connect 62 0 57 0;
#X connect 63 0 52 0;
#X connect 64 0 65 0;
#X connect 65 0 66 0;
#X connect 66 0 50 0;
#X connect 66 0 51 0;
#X connect 67 0 65 1;
#X connect 68 0 49 0;
#X connect 68 0 69 0;
#X connect 68 0 70 0;
#X connect 69 0 57 0;
#X connect 70 0 52 0;
#X connect 71 0 49 0;
#X connect 72 0 76 0;
#X connect 72 0 81 0;
#X connect 72 0 91 1;
#X connect 72 0 97 0;
#X connect 72 0 94 1;
#X connect 73 0 80 1;
#X connect 75 0 73 0;
#X connect 76 0 77 0;
#X connect 77 0 78 0;
#X connect 78 0 79 0;
#X connect 79 0 80 0;
#X connect 80 0 74 1;
#X connect 80 0 74 0;
#X connect 81 0 82 0;
#X connect 82 0 84 0;
#X connect 82 0 92 1;
#X connect 82 0 96 0;
#X connect 82 0 95 1;
#X connect 83 0 88 1;
#X connect 84 0 85 0;
#X connect 85 0 86 0;
#X connect 86 0 87 0;
#X connect 87 0 88 0;
#X connect 88 0 74 0;
#X connect 88 0 74 1;
#X connect 89 0 83 0;
#X connect 90 0 105 1;
#X connect 91 0 75 1;
#X connect 92 0 89 1;
#X connect 93 0 72 0;
#X connect 93 0 100 0;
#X connect 94 0 97 0;
#X connect 95 0 96 1;
#X connect 96 0 89 0;
#X connect 97 0 75 0;
#X connect 98 0 99 0;
#X connect 99 0 100 0;
#X connect 99 1 100 1;
#X connect 100 0 94 0;
#X connect 100 0 95 0;
#X connect 101 0 98 0;
#X connect 102 0 93 0;
#X connect 103 0 104 0;
#X connect 104 0 105 0;
#X connect 105 0 91 0;
#X connect 105 0 92 0;
#X connect 106 0 104 1;
#X connect 107 0 98 0;
#X connect 108 0 93 0;
#X connect 109 0 90 0;
#X connect 110 0 90 0;
#X connect 111 0 90 0;
#X connect 111 0 107 0;
#X connect 111 0 108 0;
#X connect 112 0 90 0;
#X connect 113 0 117 0;
#X connect 113 0 122 0;
#X connect 113 0 132 1;
#X connect 113 0 138 0;
#X connect 113 0 135 1;
#X connect 114 0 121 1;
#X connect 116 0 114 0;
#X connect 117 0 118 0;
#X connect 118 0 119 0;
#X connect 119 0 120 0;
#X connect 120 0 121 0;
#X connect 121 0 115 1;
#X connect 121 0 115 0;
#X connect 122 0 123 0;
#X connect 123 0 125 0;
#X connect 123 0 133 1;
#X connect 123 0 137 0;
#X connect 123 0 136 1;
#X connect 124 0 129 1;
#X connect 125 0 126 0;
#X connect 126 0 127 0;
#X connect 127 0 128 0;
#X connect 128 0 129 0;
#X connect 129 0 115 0;
#X connect 129 0 115 1;
#X connect 130 0 124 0;
#X connect 131 0 147 1;
#X connect 132 0 116 1;
#X connect 133 0 130 1;
#X connect 134 0 113 0;
#X connect 134 0 141 0;
#X connect 135 0 138 0;
#X connect 136 0 137 1;
#X connect 137 0 130 0;
#X connect 138 0 116 0;
#X connect 139 0 140 0;
#X connect 140 0 141 0;
#X connect 140 1 141 1;
#X connect 141 0 135 0;
#X connect 141 0 136 0;
#X connect 142 0 131 0;
#X connect 143 0 139 0;
#X connect 144 0 134 0;
#X connect 145 0 146 0;
#X connect 146 0 147 0;
#X connect 147 0 132 0;
#X connect 147 0 133 0;
#X connect 148 0 146 1;
#X connect 149 0 139 0;
#X connect 150 0 134 0;
#X connect 151 0 131 0;
#X connect 152 0 131 0;
#X connect 153 0 156 0;
#X connect 153 0 161 0;
#X connect 153 0 170 1;
#X connect 153 0 176 0;
#X connect 153 0 173 1;
#X connect 155 0 186 0;
#X connect 156 0 157 0;
#X connect 157 0 158 0;
#X connect 158 0 159 0;
#X connect 159 0 160 0;
#X connect 160 0 154 1;
#X connect 160 0 154 0;
#X connect 161 0 162 0;
#X connect 162 0 163 0;
#X connect 162 0 171 1;
#X connect 162 0 175 0;
#X connect 162 0 174 1;
#X connect 163 0 164 0;
#X connect 164 0 165 0;
#X connect 165 0 166 0;
#X connect 166 0 167 0;
#X connect 167 0 154 0;
#X connect 167 0 154 1;
#X connect 168 0 185 0;
#X connect 169 0 182 1;
#X connect 170 0 155 1;
#X connect 171 0 168 1;
#X connect 172 0 153 0;
#X connect 172 0 179 0;
#X connect 173 0 176 0;
#X connect 174 0 175 1;
#X connect 175 0 168 0;
#X connect 176 0 155 0;
#X connect 177 0 178 0;
#X connect 178 0 179 0;
#X connect 178 1 179 1;
#X connect 179 0 173 0;
#X connect 179 0 174 0;
#X connect 180 0 181 0;
#X connect 181 0 182 0;
#X connect 182 0 170 0;
#X connect 182 0 171 0;
#X connect 183 0 181 1;
#X connect 184 0 169 0;
#X connect 185 0 167 1;
#X connect 186 0 160 1;
#X connect 187 0 190 0;
#X connect 190 0 188 0;
#X connect 191 0 169 0;
#X connect 192 0 169 0;
#X connect 193 0 172 0;
#X connect 193 0 177 0;
#X connect 194 0 169 0;
#X connect 195 0 131 0;
