#N canvas 172 113 747 623 10;
#X obj 148 321 osc~ 440;
#X obj 149 446 dac~;
#X obj 275 281 bng 15 250 50 0 empty empty empty 17 7 0 10 -262144
-1 -1;
#X obj 209 305 delay 100;
#X msg 209 337 0 10;
#X msg 275 337 0.5 10;
#X obj 209 371 line~;
#X obj 149 399 *~;
#X obj 275 254 metro 1000;
#X obj 275 225 tgl 15 0 empty empty empty 17 7 0 10 -262144 -1 -1 0
1;
#X obj 370 212 /;
#X msg 370 185 60000;
#X floatatom 420 185 5 0 0 0 - - -;
#X floatatom 370 239 5 0 0 0 - - -;
#X obj 371 150 t b f;
#X floatatom 370 115 5 0 0 0 bpm - -;
#X obj 125 13 bng 15 250 50 0 empty empty empty 17 7 0 10 -262144 -1
-1;
#X obj 125 45 f 0;
#X obj 125 73 + 1;
#X floatatom 125 100 5 0 0 0 - - -;
#X obj 125 133 sel 4;
#X floatatom 182 171 5 0 0 0 - - -;
#X msg 167 270 440;
#X msg 110 272 880;
#X obj 115 231 bng 15 250 50 0 empty empty empty 17 7 0 10 -262144
-1 -1;
#X obj 72 138 sel 1;
#X obj 168 235 t b;
#X connect 0 0 7 0;
#X connect 2 0 3 0;
#X connect 2 0 5 0;
#X connect 3 0 4 0;
#X connect 4 0 6 0;
#X connect 5 0 6 0;
#X connect 6 0 7 1;
#X connect 7 0 1 0;
#X connect 7 0 1 1;
#X connect 8 0 2 0;
#X connect 8 0 16 0;
#X connect 9 0 8 0;
#X connect 10 0 13 0;
#X connect 11 0 10 0;
#X connect 12 0 10 1;
#X connect 13 0 8 1;
#X connect 14 0 11 0;
#X connect 14 1 12 0;
#X connect 15 0 14 0;
#X connect 16 0 17 0;
#X connect 17 0 18 0;
#X connect 18 0 19 0;
#X connect 19 0 20 0;
#X connect 19 0 25 0;
#X connect 20 0 21 0;
#X connect 20 1 17 1;
#X connect 21 0 17 1;
#X connect 22 0 0 0;
#X connect 23 0 0 0;
#X connect 24 0 23 0;
#X connect 25 0 24 0;
#X connect 25 1 26 0;
#X connect 26 0 22 0;
