#N canvas 644 307 869 532 10;
#N canvas 0 22 450 278 (subpatch) 0;
#X array sample1 6.06092e+06 float 2;
#X coords 0 1 6.06092e+06 -1 160 80 1 0 0;
#X restore 199 30 graph;
#X obj 507 58 soundfiler;
#X obj 507 13 openpanel;
#X obj 507 -8 bng 15 250 50 0 empty empty empty 17 7 0 10 -262144 -1
-1;
#X obj 507 136 random 100;
#X obj 507 81 t b f;
#X floatatom 507 162 10 0 0 0 Start - -;
#X obj 600 135 random 100;
#X floatatom 600 161 10 0 0 0 End - -;
#X obj 701 135 random 100;
#X floatatom 701 162 10 0 0 0 Speed - -;
#X obj 600 189 list;
#X obj 600 112 delay 10;
#X floatatom 438 81 10 0 0 0 Total - -;
#X msg 438 55 \$1;
#X obj 415 56 bng 15 250 50 0 empty empty empty 17 7 0 10 -262144 -1
-1;
#X obj 349 303 phasor~ 20;
#X obj 349 477 dac~;
#X obj 419 393 +~;
#X obj 349 342 +~ 0.5;
#X obj 349 368 cos~;
#X obj 349 392 *~ 0.5;
#X obj 349 420 +~ 0.5;
#X obj 349 443 *~;
#X obj 244 272 +~ 0.5;
#X obj 244 302 wrap~;
#X obj 194 334 +~ 0.5;
#X obj 194 360 cos~;
#X obj 194 384 *~ 0.5;
#X obj 194 407 +~ 0.5;
#X obj 194 442 *~;
#X obj 244 377 +~;
#X obj 507 187 line~;
#X obj 448 393 samphold~;
#X obj 277 377 samphold~;
#X floatatom 349 267 5 0 0 0 freq - -;
#X obj 419 303 samphold~;
#X obj 286 301 samphold~;
#X obj 244 334 *~;
#X obj 419 372 *~;
#X floatatom 420 234 5 0 0 0 pitch - -;
#X obj 420 255 t b f;
#X obj 420 278 expr 44100/$f1*$f2;
#X obj 460 187 noise~;
#X obj 460 210 *~;
#X obj 460 233 +~;
#X floatatom 488 234 5 0 0 1 noise - -;
#X obj 349 186 loadbang;
#X msg 349 235 20;
#X msg 420 210 1;
#X msg 488 209 200;
#X msg 507 37 read -resize \$1 \$0-sample;
#X obj 419 418 tabread~ \$0-sample;
#X obj 244 407 tabread~ \$0-sample;
#X connect 1 0 5 0;
#X connect 1 0 14 0;
#X connect 2 0 51 0;
#X connect 3 0 2 0;
#X connect 4 0 6 0;
#X connect 5 0 4 0;
#X connect 5 0 12 0;
#X connect 5 1 4 1;
#X connect 5 1 7 1;
#X connect 5 1 9 1;
#X connect 6 0 32 0;
#X connect 7 0 8 0;
#X connect 8 0 11 0;
#X connect 9 0 10 0;
#X connect 11 0 32 0;
#X connect 12 0 7 0;
#X connect 12 0 9 0;
#X connect 13 0 5 0;
#X connect 13 0 11 1;
#X connect 14 0 13 0;
#X connect 15 0 13 0;
#X connect 16 0 19 0;
#X connect 16 0 24 0;
#X connect 16 0 33 1;
#X connect 16 0 39 0;
#X connect 16 0 36 1;
#X connect 18 0 52 0;
#X connect 19 0 20 0;
#X connect 20 0 21 0;
#X connect 21 0 22 0;
#X connect 22 0 23 0;
#X connect 23 0 17 1;
#X connect 23 0 17 0;
#X connect 24 0 25 0;
#X connect 25 0 26 0;
#X connect 25 0 34 1;
#X connect 25 0 38 0;
#X connect 25 0 37 1;
#X connect 26 0 27 0;
#X connect 27 0 28 0;
#X connect 28 0 29 0;
#X connect 29 0 30 0;
#X connect 30 0 17 0;
#X connect 30 0 17 1;
#X connect 31 0 53 0;
#X connect 32 0 45 1;
#X connect 33 0 18 1;
#X connect 34 0 31 1;
#X connect 35 0 16 0;
#X connect 35 0 42 0;
#X connect 36 0 39 0;
#X connect 37 0 38 1;
#X connect 38 0 31 0;
#X connect 39 0 18 0;
#X connect 40 0 41 0;
#X connect 41 0 42 0;
#X connect 41 1 42 1;
#X connect 42 0 36 0;
#X connect 42 0 37 0;
#X connect 43 0 44 0;
#X connect 44 0 45 0;
#X connect 45 0 33 0;
#X connect 45 0 34 0;
#X connect 46 0 44 1;
#X connect 47 0 48 0;
#X connect 47 0 49 0;
#X connect 47 0 50 0;
#X connect 48 0 35 0;
#X connect 49 0 40 0;
#X connect 50 0 46 0;
#X connect 51 0 1 0;
#X connect 52 0 23 1;
#X connect 53 0 30 1;
